<?xml version="1.0" encoding="UTF-8"?>
<svg id="Layer_2" data-name="Layer 2" xmlns="http://www.w3.org/2000/svg" viewBox="0 0 735.58 378.7">
  <defs>
    <style>
      .cls-1 {
        fill: #fff;
      }
    </style>
  </defs>
  <g id="Layer_1-2" data-name="Layer 1">
    <g>
      <g>
        <path class="cls-1" d="M568.33,245.21c0,10.64,1.28,18.52,3.86,23.65,2.57,5.13,6.65,7.7,12.22,7.7,4.82,0,8.58-1.78,11.26-5.35,2.68-3.57,4.02-8.66,4.02-15.3,0-7.13-1.13-12.64-3.38-16.52-2.25-3.88-6.27-5.82-12.06-5.82-2.79,0-5.39.47-7.8,1.41-2.41.94-5.12,2.41-8.12,4.41v5.82Z"/>
        <path class="cls-1" d="M590.53,0c-80.11,0-145.05,64.94-145.05,145.05s121.68,234.62,144.07,233.65c22.39-.97,146.02-153.54,146.02-233.65S670.64,0,590.53,0ZM674.47,180.49c-2.63,6.2-7.03,11.23-13.22,15.11-6.19,3.88-14.2,5.82-24.05,5.82-6.02,0-11.67-.18-16.5-1.97-6.02-2.24-6.71-2.96-10.96-5.23-5.07-2.29-10.66-3.44-16.78-3.44-7.33,0-12.81,2.75-16.42,8.26-3.61,5.51-5.97,12.95-7.06,22.34,6.57-4.51,13.63-6.76,21.18-6.76,5.91,0,11.25,1.5,16.01,4.5,4.76,3,8.56,7.51,11.41,13.52,2.85,6.01,4.27,13.33,4.27,21.96,0,10.39-1.97,18.74-5.91,25.06-3.94,6.32-8.81,10.83-14.61,13.52-5.8,2.69-11.71,4.04-17.73,4.04-7.88,0-14.7-2.1-20.44-6.29-5.75-4.19-10.18-10.23-13.3-18.12-3.12-7.88-4.68-17.08-4.68-27.59,0-16.64,2.08-30.53,6.24-41.67,1.17-3.13,2.46-6.02,3.86-8.69-.02,0-.03.02-.04.02-6.72,3.47-15.29,5.2-25.73,5.2-6.84,0-13.22-.71-19.16-2.14-5.94-1.42-10.95-3.19-15.02-5.3l8.37-18.95c7.48,3.59,15.49,5.39,24.04,5.39,6.53,0,11.58-1.42,15.14-4.27,3.56-2.85,5.34-6.94,5.34-12.27,0-3.84-.68-7.03-2.03-9.57-1.36-2.54-3.84-4.52-7.44-5.95-3.6-1.42-8.58-2.14-14.96-2.14h-8.49l1.63-18.58h14.11c5.91-2.6,10.07-5.39,12.48-8.36,2.41-2.97,3.62-6.5,3.62-10.59,0-3.47-1.3-6.35-3.88-8.64-2.59-2.29-6.29-3.44-11.1-3.44-8.31,0-16.49,3.34-24.55,10.03l-12.64-14.31c10.79-10.65,23.63-15.98,38.5-15.98,8.39,0,15.47,1.27,21.23,3.81,5.76,2.54,10.07,6.1,12.95,10.69,2.88,4.58,4.32,9.79,4.32,15.61s-1.82,11.37-5.45,15.89c-3.63,4.52-8.59,8.15-14.88,10.87,7.62,2.48,13.3,6.26,17.05,11.34,3.75,5.08,5.62,11.21,5.62,18.4,0,5.31-.83,10.24-2.47,14.77,6.21-3.79,13.03-5.69,20.47-5.69,6.68,0,13.37,1.32,20.06,3.92v-.07c8.9,3.31,15.15,5.48,22.08,5.48s11.68-1.75,14.87-5.26c3.2-3.5,4.8-7.82,4.8-12.95,0-4-.6-7.44-1.79-10.32-1.19-2.88-3.38-5.13-6.57-6.76-3.19-1.63-7.6-2.44-13.23-2.44-2.27,0-4.57.16-6.9.47-2.33.31-4.08.72-5.27,1.22l-7.95-7.51v-59.13h62.56l-2.63,21.4h-37.27v24.59c2.85-.25,5.03-.38,6.57-.38,7.33,0,13.74,1.41,19.21,4.22,5.47,2.82,9.69,7.01,12.64,12.58,2.96,5.57,4.43,12.36,4.43,20.37,0,7.39-1.31,14.17-3.94,20.37Z"/>
      </g>
      <g>
        <path class="cls-1" d="M141.44,204.11l-4.27,5.76v1.55h24.09l31.85-43.7,29.71,43.7h21.61v24.07h18.89v-41.08c6.74,1.9,13.69,2.86,20.87,2.86,9.52,0,18.01-2.09,25.49-6.26,7.47-4.17,13.36-10.29,17.69-18.34,4.32-8.05,6.48-17.65,6.48-28.78,0-8.64-1.43-16.62-4.28-23.95-2.86-7.32-7.29-13.18-13.29-17.57-6.01-4.4-13.55-6.59-22.63-6.59-4.54,0-9.41.77-14.61,2.3-5.2,1.54-10.44,3.77-15.71,6.7v-8.57l-16.82,1.96h-23.68l-28.91,40.34-28.64-40.34h-22.2c-1.25-4.59-2.9-8.95-5.01-13.06-5.18-10.12-12.83-18.07-22.95-23.87-10.12-5.8-22.34-8.7-36.64-8.7-17.03,0-31.4,4.01-43.12,12.03-11.72,8.02-20.54,18.69-26.47,32.02C2.96,109.9,0,124.7,0,140.99c0,28.63,7.09,49.54,21.28,62.74,14.19,13.2,33.13,19.8,56.82,19.8,22.09,0,43.2-6.48,63.34-19.42ZM263.32,119.27c8.2-4.83,16.55-7.25,25.05-7.25,8.05,0,14.28,2.64,18.67,7.91,4.39,5.27,6.59,13.41,6.59,24.39,0,8.5-1.36,15.6-4.06,21.31-2.71,5.71-6.37,9.93-10.98,12.63-4.61,2.71-9.92,4.07-15.93,4.07s-12.45-1.1-19.34-3.3v-59.76ZM244.43,102.72v100.5l-36.87-50.24,36.87-50.26ZM48.3,88.8c7.28-7.65,17.33-11.47,30.17-11.47,11.6,0,20.54,3.46,26.84,10.36,6.29,6.91,9.44,17.28,9.44,31.09v1.48H34.05c2.22-13.33,6.97-23.81,14.25-31.46ZM32.2,143.58h112.9l.74-23.69c0-4.25-.3-8.32-.85-12.25l34.2,45.6-37.5,50.54-12.14-22.44c-8.88,5.18-16.97,9.01-24.25,11.48-7.28,2.47-15.86,3.7-25.73,3.7-13.82,0-25.11-4.19-33.87-12.58-8.76-8.39-13.27-21.84-13.51-40.35Z"/>
        <path class="cls-1" d="M380.95,197.58c13.18,0,25.78-3.88,37.79-11.64l-7.25-13.4c-5.27,3.08-10.07,5.35-14.39,6.81-4.32,1.46-9.41,2.2-15.27,2.2-8.21,0-14.9-2.49-20.1-7.47-5.2-4.98-7.88-12.96-8.02-23.95h67.01l.44-14.06c0-7.77-1.54-14.65-4.61-20.65-3.08-6-7.62-10.73-13.62-14.17-6.01-3.44-13.25-5.16-21.75-5.16-10.1,0-18.64,2.38-25.59,7.14-6.96,4.76-12.19,11.09-15.71,19-3.52,7.91-5.27,16.7-5.27,26.36,0,16.99,4.21,29.4,12.63,37.24,8.42,7.84,19.66,11.75,33.72,11.75ZM363.27,117.62c4.32-4.54,10.29-6.81,17.9-6.81,6.88,0,12.19,2.05,15.93,6.15,3.74,4.1,5.6,10.25,5.6,18.45v.88h-47.89c1.32-7.91,4.14-14.13,8.46-18.67Z"/>
        <path class="cls-1" d="M123.27,253.43c-2.05-.29-4.32-.44-6.81-.44-5.42,0-10.54,1.21-15.38,3.63-4.83,2.42-9.08,5.97-12.74,10.66v-13.84l-18.89,1.98v96.45h18.89v-65.47c3.66-5.71,7.47-9.59,11.43-11.64,3.95-2.05,8.27-3.08,12.96-3.08,4.1,0,8.64.88,13.62,2.64l3.52-19.56c-2.34-.58-4.54-1.02-6.59-1.32Z"/>
        <path class="cls-1" d="M145.39,226.26c-2.05-1.24-4.32-1.87-6.81-1.87-2.35,0-4.54.62-6.59,1.87-2.05,1.24-3.7,2.89-4.94,4.94-1.25,2.05-1.87,4.32-1.87,6.81,0,2.35.62,4.54,1.87,6.59,1.24,2.05,2.89,3.7,4.94,4.94,2.05,1.24,4.25,1.87,6.59,1.87,2.49,0,4.76-.62,6.81-1.87,2.05-1.24,3.7-2.89,4.94-4.94,1.24-2.05,1.87-4.25,1.87-6.59,0-2.49-.63-4.76-1.87-6.81-1.25-2.05-2.89-3.7-4.94-4.94Z"/>
        <polygon class="cls-1" points="129.35 367.19 148.25 367.19 148.25 268.77 129.35 270.96 129.35 367.19"/>
        <path class="cls-1" d="M478.08,305.9c0-7.76-1.54-14.65-4.61-20.65-3.08-6-7.62-10.73-13.62-14.17-6.01-3.44-13.25-5.16-21.75-5.16-10.11,0-18.64,2.38-25.6,7.14-6.96,4.76-12.19,11.09-15.71,19-3.52,7.91-5.27,16.7-5.27,26.37,0,4.39.29,8.45.85,12.23l-1.22-2.2c-4.83,2.78-9.27,4.94-13.29,6.48-4.03,1.54-8.53,2.3-13.51,2.3-8.35,0-14.98-2.49-19.88-7.47-4.91-4.98-7.36-13.18-7.36-24.61s2.42-20.83,7.25-27.35c4.83-6.51,11.57-9.78,20.21-9.78,3.95,0,7.8.52,11.53,1.54,3.74,1.03,8.16,2.79,13.29,5.27l7.03-14.5c-10.55-5.57-20.65-8.35-30.32-8.35-8.35,0-16.22,1.83-23.62,5.49-7.4,3.67-13.44,9.49-18.12,17.47-3.26,5.55-5.31,12.18-6.31,19.76-.43-19.46-10.21-29.22-29.4-29.22-11.13,0-22.85,3.22-35.15,9.67v-9.23l-18.89,2.2v17.38c-.61-5.31-2.01-10.16-4.25-14.53-3.08-6-7.62-10.73-13.62-14.17-6.01-3.44-13.26-5.16-21.75-5.16-10.11,0-18.64,2.38-25.6,7.14-6.96,4.76-12.19,11.09-15.71,19-3.52,7.91-5.27,16.7-5.27,26.36,0,16.99,4.21,29.4,12.63,37.24,8.42,7.84,19.66,11.75,33.72,11.75,13.18,0,25.78-3.88,37.79-11.64l-7.25-13.4c-5.27,3.08-10.07,5.35-14.39,6.81-4.32,1.46-9.41,2.2-15.27,2.2-8.2,0-14.9-2.49-20.1-7.47-5.2-4.98-7.88-12.96-8.02-23.95h67.01l.08-2.42v61.09h18.89v-75.58c4.39-2.05,9.08-3.7,14.06-4.94,4.98-1.24,9.67-1.87,14.06-1.87s7.87.66,10.44,1.98c2.56,1.32,4.39,3.48,5.49,6.48,1.1,3,1.65,7.21,1.65,12.63v61.29h18.89v-47.43c1.54,10.93,5.38,19.27,11.54,25.04,8.2,7.69,19.19,11.53,32.95,11.53,7.03,0,13.43-1.06,19.23-3.19,4.82-1.77,9.51-4.06,14.08-6.79,2.04,4.82,4.77,8.9,8.26,12.14,8.42,7.83,19.67,11.75,33.72,11.75,13.18,0,25.78-3.88,37.79-11.64l-7.25-13.4c-5.27,3.08-10.07,5.35-14.39,6.81-4.32,1.47-9.41,2.2-15.27,2.2-8.21,0-14.91-2.49-20.1-7.47-5.2-4.98-7.88-12.96-8.02-23.95h67.01l.44-14.06ZM216.53,291.84h-47.89c1.32-7.91,4.14-14.13,8.46-18.67,4.32-4.54,10.29-6.81,17.91-6.81,6.88,0,12.19,2.05,15.93,6.15,3.74,4.1,5.6,10.25,5.6,18.45v.88ZM459.63,306.12h-47.89c1.32-7.91,4.14-14.13,8.46-18.67,4.32-4.54,10.29-6.81,17.9-6.81,6.88,0,12.19,2.05,15.93,6.15,3.74,4.1,5.6,10.26,5.6,18.45v.88Z"/>
      </g>
    </g>
  </g>
</svg>